<?xml version="1.0" encoding="utf-8"?>
<!-- Generator: Adobe Illustrator 19.2.1, SVG Export Plug-In . SVG Version: 6.00 Build 0)  -->
<svg version="1.1" id="Layer_1" xmlns="http://www.w3.org/2000/svg" xmlns:xlink="http://www.w3.org/1999/xlink" x="0px" y="0px"
	 viewBox="0 0 75 65" style="enable-background:new 0 0 75 65;" xml:space="preserve">
<style type="text/css">
	.st0{fill:#345D7F;}
	.st1{fill:#89C844;}
	.st2{fill:none;}
	.st3{fill:#284A5F;}
</style>
<polygon class="st0" points="18.7,65 0,32.5 18.7,0 56.2,0 75,32.5 56.2,65 "/>
<path class="st1" d="M17.9,15.6v33.8h39.8V15.6H17.9z M26.3,45h-2.4V20h2.4V45z M34.7,45h-2.4V20h2.4V45z M43.2,45h-2.4V20h2.4V45z
	 M51.6,45h-2.4V20h2.4V45z"/>
<g>
	<polygon class="st2" points="86.7,44.6 75,32.9 56.7,64.6 	"/>
	<polygon class="st2" points="33.5,65 42.6,74.1 56.2,65 	"/>
	<polygon class="st3" points="56.7,64.6 75,32.9 57.7,15.6 57.7,49.4 17.9,49.4 33.5,65 56.2,65 	"/>
</g>
</svg>
