<?xml version="1.0" encoding="utf-8"?>
<!-- Generator: Adobe Illustrator 19.2.1, SVG Export Plug-In . SVG Version: 6.00 Build 0)  -->
<svg version="1.1" id="Layer_1" xmlns="http://www.w3.org/2000/svg" xmlns:xlink="http://www.w3.org/1999/xlink" x="0px" y="0px"
	 viewBox="0 0 100 100" style="enable-background:new 0 0 100 100;" xml:space="preserve">
<style type="text/css">
	.st0{fill:#345D7F;}
	.st1{fill:#89C844;}
	.st2{fill:none;}
	.st3{fill:#284A5F;}
</style>
<polygon class="st0" points="32,79.8 13.3,47.3 32,14.8 69.5,14.8 88.3,47.3 69.5,79.8 "/>
<path class="st1" d="M31.2,30.4v33.8H71V30.4H31.2z M39.6,59.8h-2.4v-25h2.4V59.8z M48,59.8h-2.4v-25H48V59.8z M56.5,59.8h-2.4v-25
	h2.4V59.8z M64.9,59.8h-2.4v-25h2.4V59.8z"/>
<g>
	<polygon class="st2" points="100,59.4 88.3,47.7 70,79.4 	"/>
	<polygon class="st2" points="46.8,79.8 55.9,88.9 69.5,79.8 	"/>
	<polygon class="st3" points="70,79.4 88.3,47.7 71,30.4 71,64.2 31.2,64.2 46.8,79.8 69.5,79.8 	"/>
</g>
</svg>
